<svg preserveAspectRatio="none" width="100%" height="100%" overflow="visible" style="display: block;" viewBox="0 0 35 35" fill="none" xmlns="http://www.w3.org/2000/svg">
<g id="Button - Cuenta &#226;&#134;&#146; SVG">
<g id="svg_1">
<path d="M17.5042 16.6517C16.0738 16.6517 14.9027 15.6078 14.9027 14.3259C14.9027 13.044 16.0738 12 17.5042 12C18.9346 12 20.089 13.044 20.089 14.3259C20.089 15.6078 18.9262 16.6517 17.5042 16.6517ZM17.5042 12.6064C16.4418 12.6064 15.5802 13.3817 15.5802 14.3259C15.5802 15.2777 16.4418 16.0453 17.5042 16.0453C18.5582 16.0453 19.4198 15.27 19.4198 14.3259C19.4198 13.3817 18.5582 12.6064 17.5042 12.6064ZM22.657 22.9999H12.343C12.299 23.0009 12.2553 22.994 12.2143 22.9795C12.1732 22.965 12.1357 22.9432 12.1039 22.9154C12.072 22.8876 12.0465 22.8543 12.0286 22.8175C12.0108 22.7806 12.0011 22.7409 12 22.7005C12 19.6301 14.4677 17.1353 17.4958 17.1353C20.5323 17.1353 23 19.6301 23 22.7005C23 22.8617 22.8494 22.9999 22.657 22.9999ZM12.6859 22.3935H22.3141C22.1635 19.799 20.0555 17.7417 17.4958 17.7417C14.9361 17.7417 12.8365 19.8066 12.6859 22.3935Z" fill="var(--fill-0, #2E2E2E)"/>
<path d="M17.5042 16.6517C16.0738 16.6517 14.9027 15.6078 14.9027 14.3259C14.9027 13.044 16.0738 12 17.5042 12C18.9346 12 20.089 13.044 20.089 14.3259C20.089 15.6078 18.9262 16.6517 17.5042 16.6517ZM17.5042 16.6517V16.6441M17.5042 12.6064C16.4418 12.6064 15.5802 13.3817 15.5802 14.3259C15.5802 15.2777 16.4418 16.0453 17.5042 16.0453C18.5582 16.0453 19.4198 15.27 19.4198 14.3259C19.4198 13.3817 18.5582 12.6064 17.5042 12.6064ZM22.657 22.9999H12.343C12.299 23.0009 12.2553 22.994 12.2143 22.9795C12.1732 22.965 12.1357 22.9432 12.1039 22.9154C12.072 22.8876 12.0465 22.8543 12.0286 22.8175C12.0108 22.7806 12.0011 22.7409 12 22.7005C12 19.6301 14.4677 17.1353 17.4958 17.1353C20.5323 17.1353 23 19.6301 23 22.7005C23 22.8617 22.8494 22.9999 22.657 22.9999ZM12.6859 22.3935H22.3141C22.1635 19.799 20.0555 17.7417 17.4958 17.7417C14.9361 17.7417 12.8365 19.8066 12.6859 22.3935Z" stroke="var(--stroke-0, #2E2E2E)" stroke-width="0.2"/>
</g>
</g>
</svg>
