<svg width="97" height="20" viewBox="0 0 97 20" fill="none" xmlns="http://www.w3.org/2000/svg">
<g clip-path="url(#clip0_2001_3928)">
<path d="M0 5.91388H4.50338L4.53067 7.56427C5.18571 6.60154 6.52307 5.5838 8.57006 5.5838C9.98931 5.5838 11.4086 6.29897 12.2273 7.56427C12.8278 6.62905 14.2198 5.5838 16.567 5.5838C18.9142 5.5838 21.3433 7.09666 21.3433 10.7V19.6671H16.5397V11.7178C16.5397 10.535 16.0757 9.84731 15.0113 9.84731C14.056 9.84731 13.0734 10.48 13.0734 12.2404V19.6671H8.26984V11.7178C8.26984 10.535 7.80585 9.84731 6.74142 9.84731C5.78616 9.84731 4.8036 10.6175 4.8036 12.3779V19.6671H0V5.91388Z" fill="black"/>
<path d="M22.7627 0H27.5663V4.53858H22.7627V0ZM22.7627 5.9139H27.5663V19.6672H22.7627V5.9139Z" fill="black"/>
<path d="M29.2041 0H34.0077V10.1224L37.4194 5.9139H43.1509L37.5285 12.1854L43.4239 19.6672H37.3648L34.0077 14.9911V19.6672H29.2041V0Z" fill="black"/>
<path d="M44.1055 5.91388H48.6252L48.6389 7.56427C49.2939 6.60154 50.6313 5.5838 52.6783 5.5838C54.0975 5.5838 55.5167 6.29897 56.3355 7.56427C56.936 6.62905 58.3279 5.5838 60.6752 5.5838C63.0224 5.5838 65.4515 7.09666 65.4515 10.7V19.6671H60.6479V11.7178C60.6479 10.535 60.1839 9.84731 59.1194 9.84731C58.1642 9.84731 57.1816 10.48 57.1816 12.2404V19.6671H52.378V11.7178C52.378 10.535 51.914 9.84731 50.8496 9.84731C49.8944 9.84731 48.9118 10.6175 48.9118 12.3779V19.6671H44.1082V5.91388H44.1055Z" fill="black"/>
<path d="M66.3223 12.7905C66.3223 7.75682 69.9523 5.5838 72.7635 5.5838C74.5648 5.5838 76.0059 6.24121 76.8574 7.09391V5.91388H81.3608V19.6671H77.1304L77.1031 17.7307C76.8574 18.4321 75.7493 19.9972 72.4905 19.9972C69.2317 19.9972 66.3223 17.3566 66.3223 12.7905ZM76.5845 12.7905C76.5845 10.81 75.3563 9.70978 73.8552 9.70978C72.3541 9.70978 71.1259 10.81 71.1259 12.7905C71.1259 14.771 72.3541 15.8712 73.8552 15.8712C75.3563 15.8712 76.5845 14.771 76.5845 12.7905Z" fill="black"/>
<path d="M86.9287 12.4879L82.5891 5.91388H87.884L89.5761 9.02212L91.2683 5.91388H96.5905L92.2509 12.4879L96.9999 19.6671H91.6504L89.5761 15.9813L87.5019 19.6671H82.1797L86.9287 12.4879Z" fill="black"/>
</g>
<defs>
<clipPath id="clip0_2001_3928">
<rect width="97" height="20" fill="white"/>
</clipPath>
</defs>
</svg>
