<svg preserveAspectRatio="none" width="100%" height="100%" overflow="visible" style="display: block;" viewBox="0 0 35 35" fill="none" xmlns="http://www.w3.org/2000/svg">
<g id="Frame 427319123">
<path id="svg_1" d="M22.8714 22.3339L19.7127 19.3103C20.4455 18.5119 20.8526 17.4652 20.8532 16.3785C20.8532 13.9596 18.8649 12 16.4266 12C13.9807 12 12 13.9673 12 16.3785C12 18.7974 13.9807 20.757 16.4266 20.757C17.4025 20.7568 18.3514 20.4341 19.1275 19.8385L22.3087 22.8927C22.3862 22.9642 22.4884 23.0026 22.5938 22.9999C22.6991 23.0026 22.8014 22.9642 22.8789 22.8927C22.9171 22.8569 22.9476 22.8136 22.9684 22.7656C22.9892 22.7175 23 22.6657 23 22.6133C23 22.5609 22.9892 22.5091 22.9684 22.461C22.9476 22.413 22.9171 22.3697 22.8789 22.3339H22.8714ZM16.4266 19.9686C14.4309 19.9686 12.7953 18.3611 12.7953 16.3785C12.7953 14.3959 14.4309 12.7884 16.4266 12.7884C18.4223 12.7884 20.0579 14.3959 20.0579 16.3785C20.0579 18.3611 18.4223 19.9686 16.4266 19.9686Z" fill="var(--fill-0, #2E2E2E)"/>
</g>
</svg>
