<svg width="753" height="156" viewBox="0 0 753 156" fill="none" xmlns="http://www.w3.org/2000/svg">
<path d="M226.705 0H263.995V78.8426L290.479 46.0629H334.973L291.327 94.911L337.091 153.186H290.055L263.995 116.764V153.186H226.705V0Z" fill="white"/>
<path d="M0 46.0636H34.9592L35.1711 58.9183C40.2561 51.4197 50.6379 43.4926 66.5285 43.4926C77.546 43.4926 88.5634 49.063 94.9196 58.9183C99.5809 51.634 110.386 43.4926 128.608 43.4926C146.829 43.4926 165.686 55.2762 165.686 83.3424V153.187H128.396V91.2695C128.396 82.0569 124.794 76.7008 116.531 76.7008C109.115 76.7008 101.488 81.6284 101.488 95.3402V153.187H64.1979V91.2695C64.1979 82.0569 60.596 76.7008 52.3329 76.7008C44.9173 76.7008 37.2899 82.6997 37.2899 96.4114V153.187H0V46.0636Z" fill="white"/>
<path d="M176.702 0.000457764H213.992V35.3511H176.702V0.000457764ZM176.702 46.0634H213.992V153.186H176.702V46.0634Z" fill="white"/>
<path d="M342.388 46.0636H377.474L377.58 58.9183C382.665 51.4197 393.047 43.4926 408.937 43.4926C419.955 43.4926 430.972 49.063 437.328 58.9183C441.99 51.634 452.795 43.4926 471.016 43.4926C489.238 43.4926 508.094 55.2762 508.094 83.3424V153.187H470.804V91.2695C470.804 82.0569 467.203 76.7008 458.939 76.7008C451.524 76.7008 443.896 81.6284 443.896 95.3402V153.187H406.607V91.2695C406.607 82.0569 403.005 76.7008 394.742 76.7008C387.326 76.7008 379.699 82.6997 379.699 96.4114V153.187H342.409V46.0636H342.388Z" fill="white"/>
<path d="M514.856 99.6251C514.856 60.4181 543.035 43.4926 564.858 43.4926C578.842 43.4926 590.029 48.6131 596.639 55.2547V46.0636H631.598V153.187H598.758L598.546 138.104C596.639 143.567 588.037 155.758 562.739 155.758C537.441 155.758 514.856 135.19 514.856 99.6251ZM594.52 99.6251C594.52 84.1994 584.986 75.6295 573.333 75.6295C561.68 75.6295 552.146 84.1994 552.146 99.6251C552.146 115.051 561.68 123.621 573.333 123.621C584.986 123.621 594.52 115.051 594.52 99.6251Z" fill="white"/>
<path d="M674.819 97.2678L641.131 46.063H682.235L695.371 70.2728L708.507 46.063H749.823L716.135 97.2678L753.001 153.186H711.473L695.371 124.477L679.268 153.186H637.953L674.819 97.2678Z" fill="white"/>
</svg>
